<svg xmlns="http://www.w3.org/2000/svg" viewBox="0 0 842.23 169.64"><defs><style>.cls-1{fill:#51676e;}.cls-2{fill:#e23f47;}</style></defs><title>Asset 17</title><g id="Layer_2" data-name="Layer 2"><g id="Layer_1-2" data-name="Layer 1"><path class="cls-1" d="M122.6,146.14V125.9c0-23.41-6.25-38.75-18.61-45.74A38.63,38.63,0,0,0,117.6,68a41.66,41.66,0,0,0,7.2-23.87c0-13.17-5-24-14.87-32.1-9.67-8-24.15-12-43-12H39V24.2H64.7c13.18,0,22.47,1.92,27.63,5.72,4.9,3.6,7.27,8.76,7.27,15.78a18.17,18.17,0,0,1-8.55,16.09C84.94,65.91,76.41,68,65.7,68H39V92.2H70.9c8.95,0,15.22,2.1,18.65,6.26a47.28,47.28,0,0,1,4.42,7l.08.14c1.53,2.75,3.35,12.22,3.35,30.5l2,10.2Z"/><path class="cls-1" d="M233.76,92.1c0-15.54-4.36-28.92-12.95-39.78C212,41.23,199.11,35.6,182.46,35.6s-29.55,5.63-38.34,16.72c-8.6,10.86-13,24.74-13,41.28s5,30.16,14.71,40.05,22.85,14.95,38.89,14.95c15.67,0,29.54-3.31,41.21-9.85l1.79-1V114.6h-5.55l-.87.57a55.79,55.79,0,0,1-31.18,9.43c-11,0-19.2-2.33-24.38-6.92-4.41-3.91-7.25-9.07-8.62-15.68h76.6ZM164.91,64.58A26.35,26.35,0,0,1,182.46,58a26.68,26.68,0,0,1,17.66,6.59c4.43,3.68,7.09,8.81,8.08,15.61H156.92C157.9,73.4,160.53,68.26,164.91,64.58Z"/><path class="cls-1" d="M275.41,68.46c-5.91,6-8.79,13.7-8.79,23.64s2.88,17.66,8.79,23.64,13.95,8.86,24.61,8.86a53,53,0,0,0,30.14-9.4l.89-.6h5.37v22.7l-1.72,1a70.82,70.82,0,0,1-36.38,10.29c-15.64,0-29.15-5.16-40.17-15.33s-16.73-24.1-16.73-41.17,5.63-30.93,16.73-41.17S282.68,35.6,298.32,35.6A71,71,0,0,1,334.7,45.88l1.72,1V69.6h-5.37l-.89-.6A53,53,0,0,0,300,59.6C289.36,59.6,281.31,62.5,275.41,68.46Z"/><path class="cls-1" d="M446.12,92.1c0-15.54-4.36-28.92-13-39.78-8.79-11.09-21.69-16.72-38.34-16.72s-29.55,5.63-38.34,16.72c-8.6,10.86-13,24.74-13,41.28s5,30.16,14.71,40.05,22.85,14.95,38.89,14.95c15.67,0,29.54-3.31,41.21-9.85l1.79-1V114.6h-5.55l-.87.57a55.84,55.84,0,0,1-31.18,9.43c-11,0-19.2-2.33-24.38-6.92-4.41-3.91-7.25-9.07-8.62-15.68h76.6ZM377.27,64.58A26.35,26.35,0,0,1,394.82,58a26.68,26.68,0,0,1,17.66,6.59c4.43,3.68,7.09,8.81,8.08,15.61H369.28C370.26,73.4,372.89,68.26,377.27,64.58Z"/><path class="cls-1" d="M548.84,51c-10.3-10.23-22.53-15.41-36.36-15.41a47.72,47.72,0,0,0-31.77,11.77L479,37.6H456.58V169.14h25.2V137.72a47.64,47.64,0,0,0,30.7,10.88c13.83,0,26.06-5.19,36.36-15.42h0c10.3-10.24,15.53-24.06,15.53-41.08S559.15,61.25,548.84,51Zm-39,73.59c-10.68,0-19.88-4.22-28.1-12.88V72.47C490,63.81,499.2,59.6,509.88,59.6c9,0,15.91,2.72,21.27,8.32s8,13.7,8,24.18-2.7,18.61-8,24.18S518.83,124.6,509.88,124.6Z"/><path class="cls-1" d="M608.8,60.2v56.9c0,2.78.43,6.29,2.49,7.19a22.35,22.35,0,0,0,8.41,1.31,29.62,29.62,0,0,0,11.78-2.9l.68-.3h5.64v20.42l-1.88,1a41.94,41.94,0,0,1-19.62,4.8c-27,0-32.7-16.26-32.7-29.9V60.2h-19V54l44.2-43.25V37.6h29V60.2Z"/><path class="cls-1" d="M745.74,37.6v109H723.29l-2.06-12c-10.25,9.27-21.79,14-34.4,14-12.08,0-21.79-4.18-28.85-12.42s-10.44-18.27-10.44-30.28V37.6h25.2v66.3c0,14.26,5.87,20.9,18.5,20.9,10.14,0,20-5.7,29.3-17V37.6Z"/><path class="cls-1" d="M842.23,116.16c0,9.14-3.82,17-11.36,23.23-7.35,6.11-18.19,9.21-32.24,9.21a78.06,78.06,0,0,1-38-9.43l-1.82-1v-23h5.46l.83.49a65.45,65.45,0,0,0,33.81,9.11c18.7,0,18.7-7.84,18.7-10.79,0-.59,0-2.4-4.17-4.37a87,87,0,0,0-14.31-5l-17.62-4.72a35.16,35.16,0,0,1-16.75-10c-4.74-5-7.15-11.5-7.15-19.19,0-10.35,3.8-18.91,11.3-25.44s17.39-9.66,29.8-9.66a96,96,0,0,1,33.63,5.82l2.27.85V64.8H829l-.65-.27a64.47,64.47,0,0,0-24.85-5.33c-7.83,0-13.57,1.09-17.06,3.23-4,2.45-4.44,4.86-4.44,6.46s.5,3.74,4.36,5.62a79.25,79.25,0,0,0,14.49,5.16l17.71,4.65a32.65,32.65,0,0,1,16.72,10.42C839.91,100,842.23,107.24,842.23,116.16Z"/><path class="cls-2" d="M33,.14V168c0,1.55-1.58,2.22-2.35,1L16.5,152.14,2.35,169c-.77,1.23-2.35.56-2.35-1V.14Z"/></g></g></svg>